<?xml version="1.0" encoding="utf-8"?>
<!-- Generator: Adobe Illustrator 23.0.6, SVG Export Plug-In . SVG Version: 6.00 Build 0)  -->
<svg version="1.1" id="Layer_1" xmlns="http://www.w3.org/2000/svg" xmlns:xlink="http://www.w3.org/1999/xlink" x="0px" y="0px"
	 viewBox="0 0 248.9 170.3" style="enable-background:new 0 0 248.9 170.3;" xml:space="preserve">
<style type="text/css">
	.st0{fill:#FFFFFF;}
	.st1{fill:none;}
	.st2{fill:#FF3000;}
	.st3{fill:#3C1213;}
	.st4{fill:#DD0000;}
</style>
<g>
	<path class="st0" d="M232.3,92.3l-6.2,3.1l-16.5,8.3l15.4-8.9l6.5-3.7c-0.5-0.8-1-1.8-1.4-2.8l-8.5,4.4l-8.3,4.3l7.8-4.7l8.7-5.2
		c0-0.1,0-0.1-0.1-0.2c-0.1-0.3-0.2-0.7-0.2-1L218.9,91l-17.1,8.2l16-8.9l11.4-6.4c-0.1-1.9,0.3-3.6,0.8-5.1l-6.1,3.4l-10.1,5.6
		l-80.1,44.7c-0.8,0.4-1.7,0.7-2.6,0.9c-1.3,1.9-2.6,5.5-2.4,11.5c0.2,5.4,1.9,7.2,3.5,7.7l13.5-7.4c-1.9-4.7-5.3-6.7-5.3-6.7
		l12.1-6.4c0,0,5,1.1,6.9,5.9l73.1-38.7l4.8-2.6C236.6,96.4,234.4,95,232.3,92.3z"/>
	<path class="st1" d="M101.5,27.4C101.5,27.4,101.4,27.4,101.5,27.4L101.5,27.4C101.5,27.4,101.5,27.4,101.5,27.4z"/>
	<path class="st2" d="M199.8,48.7l-53.4-31.2l-38.4,10.1c-2,0.6-4.5,0.4-6.6-0.2c0,0,0,0,0,0l0,0c-1.2-0.3-2.2-0.8-3-1.4L70.5,7.6
		L21.4,22.4l20.5,18.7l7.7,7l26,23.6l55.1,50.1l74.2-39.5L215,77l17.4-9.3L199.8,48.7z"/>
	<path class="st3" d="M247.5,95.9l-5-1.9c-1-0.6-6.7-4.1-7.4-9.3c-0.4-3.1,0.6-6.6,2.3-9.9l0.9-0.5l7.9-4.4c3-1.7,3.6-4.1,1.3-5.4
		l-28.2-15.7l-66-36.7c-2.3-1.3-6.6-1.8-9.6-1l-38.4,8.9L77.3,2.2c-2.3-1.7-6.6-2.6-9.7-2.1L7.5,15.8c-0.9,0.2-1.5,0.5-2,0.9
		c-0.1,0-0.1,0-0.2,0.1c0,0-7.1,8.2-5,23.5c0.8,5.7,4.8,10.9,4.8,10.9c0,0,0.1,0,0.1,0c0.2,0.4,0.5,0.7,0.9,1.1l69.5,65.4l48.4,45.5
		c2.3,2.2,6.6,2.6,9.6,0.9l12.3-6.9c0.1-3.1,1.3-6,0.5-9.5c-0.2-0.9-0.5-1.7-0.8-2.5l-13.5,7.4c-1.5-0.5-3.3-2.3-3.5-7.7
		c-0.2-6,1.1-9.5,2.4-11.5c0.9-0.2,1.8-0.4,2.6-0.9l80.1-44.7l10.1-5.6l6.1-3.4c-0.5,1.5-0.9,3.2-0.8,5.1l-11.4,6.4l-16,8.9
		l17.1-8.2l10.6-5.1c0.1,0.3,0.1,0.7,0.2,1c0,0.1,0,0.1,0.1,0.2l-8.7,5.2l-7.8,4.7l8.3-4.3l8.5-4.4c0.4,1,0.9,2,1.4,2.8l-6.5,3.7
		l-15.4,8.9l16.5-8.3l6.2-3.1c2,2.7,4.3,4.1,4.8,4.4l-4.8,2.6l-73.1,38.7c0.7,1.7,1,3.8,0.6,6.5c-0.3,1.8-0.6,3.6-0.7,5.3l87-48.4
		C249.2,99.6,249.7,97.2,247.5,95.9z M215,77l-10.1,5.4l-74.2,39.5L75.7,71.8l-26-23.6l-7.7-7L21.4,22.4L70.5,7.6L98.4,26
		c0.8,0.6,1.9,1.1,3,1.4c0,0,0,0,0,0c2.1,0.6,4.6,0.7,6.6,0.2l38.4-10.1l53.4,31.2l32.6,19.1L215,77z"/>
	<path class="st4" d="M158.7,163.3c3.2-0.2,12.8-3.5,12.2-4.2c-0.9-1-6.5,0.2-9.9-1.9c-2-1.2-2.1-4.1-1.8-7.4
		c0.2-1.7,0.5-3.6,0.7-5.3c0.4-2.7,0.1-4.8-0.6-6.5c-1.9-4.8-6.9-5.9-6.9-5.9l-12.1,6.4c0,0,3.4,2.1,5.3,6.7
		c0.3,0.8,0.6,1.6,0.8,2.5c0.8,3.5-0.4,6.4-0.5,9.5c0,1.2,0,2.4,0.5,3.6c3.2,9.2,8.8,9,14.4,9.6
		C162.2,170.5,157.5,163.3,158.7,163.3z"/>
</g>
</svg>
