<?xml version="1.0" encoding="utf-8"?>
<!-- Generator: Adobe Illustrator 24.1.0, SVG Export Plug-In . SVG Version: 6.00 Build 0)  -->
<svg version="1.1" id="Layer_1" xmlns="http://www.w3.org/2000/svg" xmlns:xlink="http://www.w3.org/1999/xlink" x="0px" y="0px"
	 viewBox="0 0 248.85 170.33" style="enable-background:new 0 0 248.85 170.33;" xml:space="preserve">
<style type="text/css">
	.st0{fill:#FFFFFF;}
	.st1{fill:none;}
	.st2{fill:#009245;}
	.st3{fill:#006837;}
	.st4{fill:#C1272D;}
</style>
<g>
	<path class="st0" d="M232.34,92.28l-6.24,3.13l-16.46,8.25l15.39-8.91l6.46-3.74c-0.52-0.84-1-1.77-1.4-2.82l-8.52,4.43l-8.34,4.34
		l7.79-4.68l8.69-5.22c-0.02-0.07-0.05-0.13-0.06-0.19c-0.1-0.34-0.17-0.67-0.24-1l-10.56,5.08l-17.06,8.2l15.95-8.88l11.43-6.37
		c-0.07-1.89,0.29-3.62,0.82-5.08l-6.07,3.38l-10.13,5.65l-80.14,44.66c-0.79,0.44-1.68,0.73-2.59,0.89
		c-1.26,1.95-2.57,5.52-2.4,11.48c0.16,5.4,1.94,7.18,3.48,7.7l13.51-7.39c-1.9-4.65-5.33-6.73-5.33-6.73l12.07-6.41
		c0,0,4.96,1.09,6.9,5.89l73.11-38.67l4.77-2.57C236.65,96.4,234.38,95.02,232.34,92.28z"/>
	<path class="st1" d="M101.48,27.42c-0.02,0-0.03-0.01-0.05-0.02l0.03,0.02C101.46,27.42,101.48,27.42,101.48,27.42z"/>
	<path class="st2" d="M199.81,48.73l-53.37-31.2l-38.37,10.08c-1.96,0.55-4.45,0.44-6.6-0.19c0,0-0.02,0.01-0.02,0.01l-0.03-0.02
		c-1.16-0.34-2.22-0.83-3.02-1.45L70.47,7.56L21.4,22.44l20.53,18.67l7.74,7.04l26,23.64l55.06,50.07l74.18-39.46l10.11-5.37
		l17.4-9.25L199.81,48.73z"/>
	<path class="st3" d="M247.45,95.88l-4.99-1.9c-0.96-0.56-6.7-4.15-7.37-9.35c-0.4-3.14,0.65-6.56,2.26-9.9l0.85-0.48l7.94-4.43
		c3.01-1.68,3.59-4.11,1.3-5.44l-28.16-15.67L153.29,12c-2.29-1.33-6.61-1.77-9.64-0.99l-38.41,8.9L77.32,2.24
		c-2.3-1.7-6.63-2.63-9.68-2.08L7.5,15.8c-0.88,0.16-1.53,0.47-1.99,0.86c-0.05,0.03-0.09,0.04-0.15,0.07c0,0-7.09,8.16-4.96,23.49
		c0.79,5.7,4.77,10.91,4.77,10.91c0.03,0,0.07-0.01,0.11-0.01c0.23,0.36,0.51,0.73,0.9,1.11l69.48,65.37l48.35,45.49
		c2.32,2.18,6.63,2.59,9.64,0.91l12.31-6.89c0.13-3.06,1.29-5.95,0.48-9.47c-0.21-0.89-0.48-1.7-0.79-2.45l-13.51,7.39
		c-1.54-0.52-3.33-2.3-3.48-7.7c-0.17-5.96,1.13-9.54,2.4-11.48c0.91-0.16,1.8-0.45,2.59-0.89l80.14-44.66l10.13-5.65l6.07-3.38
		c-0.53,1.46-0.89,3.19-0.82,5.08l-11.43,6.37l-15.95,8.88l17.06-8.2l10.56-5.08c0.07,0.33,0.14,0.66,0.24,1
		c0.02,0.07,0.04,0.13,0.06,0.19l-8.69,5.22l-7.79,4.68l8.34-4.34l8.52-4.43c0.4,1.04,0.88,1.98,1.4,2.82l-6.46,3.74l-15.39,8.91
		l16.46-8.25l6.24-3.13c2.04,2.74,4.3,4.12,4.84,4.42l-4.77,2.57l-73.11,38.67c0.68,1.67,0.99,3.79,0.6,6.48
		c-0.26,1.76-0.56,3.6-0.72,5.34l86.98-48.44C249.16,99.65,249.74,97.21,247.45,95.88z M215.01,77.04l-10.11,5.37l-74.18,39.46
		L75.67,71.79l-26-23.64l-7.74-7.04L21.4,22.44L70.47,7.56l27.94,18.4c0.81,0.62,1.87,1.1,3.02,1.45c0.02,0,0.03,0.01,0.05,0.02
		c2.14,0.62,4.64,0.74,6.6,0.19l38.37-10.08l53.37,31.2l32.59,19.06L215.01,77.04z"/>
	<path class="st4" d="M158.74,163.26c3.19-0.19,12.85-3.48,12.21-4.15c-0.94-1-6.51,0.2-9.93-1.94c-1.96-1.22-2.15-4.13-1.84-7.41
		c0.16-1.74,0.46-3.58,0.72-5.34c0.4-2.69,0.08-4.81-0.6-6.48c-1.94-4.8-6.9-5.89-6.9-5.89l-12.07,6.41c0,0,3.43,2.08,5.33,6.73
		c0.31,0.75,0.58,1.56,0.79,2.45c0.81,3.52-0.36,6.41-0.48,9.47c-0.05,1.18,0.05,2.37,0.48,3.65c3.16,9.22,8.81,9,14.43,9.56
		C162.18,170.46,157.51,163.33,158.74,163.26z"/>
</g>
</svg>
