<?xml version="1.0" encoding="utf-8"?>
<!-- Generator: Adobe Illustrator 23.0.6, SVG Export Plug-In . SVG Version: 6.00 Build 0)  -->
<svg version="1.1" id="Layer_1" xmlns="http://www.w3.org/2000/svg" xmlns:xlink="http://www.w3.org/1999/xlink" x="0px" y="0px"
	 viewBox="0 0 113.1 171.8" style="enable-background:new 0 0 113.1 171.8;" xml:space="preserve">
<style type="text/css">
	.st0{fill:#FFFFFF;}
	.st1{fill:none;}
	.st2{fill:#FF3000;}
	.st3{fill:#3C1213;}
	.st4{fill:#DD0000;}
	.st5{fill:#3C1214;}
</style>
<g>
	<g>
		<path class="st0" d="M105.6,134.5l-2.8,1.4l-7.5,3.8l7-4l2.9-1.7c-0.2-0.4-0.5-0.8-0.6-1.3l-3.9,2l-3.8,2l3.5-2.1l3.9-2.4
			c0,0,0-0.1,0-0.1c0-0.2-0.1-0.3-0.1-0.5l-4.8,2.3l-7.8,3.7l7.3-4l5.2-2.9c0-0.9,0.1-1.6,0.4-2.3l-2.8,1.5l-4.6,2.6l-36.4,20.3
			c-0.4,0.2-0.8,0.3-1.2,0.4c-0.6,0.9-1.2,2.5-1.1,5.2c0.1,2.5,0.9,3.3,1.6,3.5l2.8-1.5c-0.9-2.1-2.4-3.1-2.4-3.1l5.5-2.9
			c0,0,2.3,0.5,3.1,2.7l36.5-19.4l2.2-1.2C107.6,136.4,106.6,135.7,105.6,134.5z"/>
		<path class="st1" d="M46.1,105C46.1,105,46.1,105,46.1,105L46.1,105C46.1,105,46.1,105,46.1,105z"/>
		<path class="st2" d="M90.8,114.7l-24.3-14.2l-17.4,4.6c-0.9,0.3-2,0.2-3-0.1c0,0,0,0,0,0l0,0c-0.5-0.2-1-0.4-1.4-0.7L32,96
			l-22.3,6.8l9.3,8.5l3.5,3.2l11.8,10.7l25,22.8L93.2,130l4.6-2.4l7.9-4.2L90.8,114.7z"/>
		<path class="st3" d="M112.5,136.1l-2.3-0.9c-0.4-0.3-3-1.9-3.4-4.2c-0.2-1.4,0.3-3,1-4.5l0.4-0.2l3.6-2c1.4-0.8,1.6-1.9,0.6-2.5
			l-12.8-7.1L69.7,98c-1-0.6-3-0.8-4.4-0.4l-17.5,4l-12.7-8c-1-0.8-3-1.2-4.4-0.9L3.4,99.7c-0.4,0.1-0.7,0.2-0.9,0.4c0,0,0,0-0.1,0
			c0,0-3.2,3.7-2.3,10.7c0.4,2.6,2.2,5,2.2,5c0,0,0,0,0,0c0.1,0.2,0.2,0.3,0.4,0.5L34.4,146l22,20.7c1.1,1,3,1.2,4.4,0.4l2.3-1.3
			c0.1-1.4,0.6-2.7,0.2-4.3c-0.1-0.4-0.2-0.8-0.4-1.1l-2.8,1.5c-0.7-0.2-1.5-1-1.6-3.5c-0.1-2.7,0.5-4.3,1.1-5.2
			c0.4-0.1,0.8-0.2,1.2-0.4l36.4-20.3l4.6-2.6l2.8-1.5c-0.2,0.7-0.4,1.5-0.4,2.3l-5.2,2.9l-7.3,4l7.8-3.7l4.8-2.3
			c0,0.2,0.1,0.3,0.1,0.5c0,0,0,0.1,0,0.1l-3.9,2.4l-3.5,2.1l3.8-2l3.9-2c0.2,0.5,0.4,0.9,0.6,1.3l-2.9,1.7l-7,4l7.5-3.8l2.8-1.4
			c0.9,1.2,2,1.9,2.2,2l-2.2,1.2l-36.5,19.4c0.3,0.8,0.5,1.7,0.3,2.9c-0.1,0.8-0.3,1.6-0.3,2.4l42.8-23.9
			C113.3,137.8,113.5,136.7,112.5,136.1z M97.7,127.6l-4.6,2.4l-33.7,17.9l-25-22.8l-11.8-10.7l-3.5-3.2l-9.3-8.5L32,96l12.7,8.4
			c0.4,0.3,0.8,0.5,1.4,0.7c0,0,0,0,0,0c1,0.3,2.1,0.3,3,0.1l17.4-4.6l24.3,14.2l14.8,8.7L97.7,127.6z"/>
		<path class="st4" d="M68.9,168.6c1.4-0.1,5.8-1.6,5.6-1.9c-0.4-0.5-3,0.1-4.5-0.9c-0.9-0.6-1-1.9-0.8-3.4c0.1-0.8,0.2-1.6,0.3-2.4
			c0.2-1.2,0-2.2-0.3-2.9c-0.9-2.2-3.1-2.7-3.1-2.7l-5.5,2.9c0,0,1.6,0.9,2.4,3.1c0.1,0.3,0.3,0.7,0.4,1.1c0.4,1.6-0.2,2.9-0.2,4.3
			c0,0.5,0,1.1,0.2,1.7c1.4,4.2,4,4.1,6.6,4.3C70.4,171.9,68.3,168.6,68.9,168.6z"/>
	</g>
	<g>
		<g>
			<path class="st5" d="M36.9,0c-0.3,0.2-0.5,0.5-0.7,0.8c-0.2,0.3-0.3,0.5-0.5,0.9c-0.1,0.3-0.2,0.7-0.2,1v21.5
				c0,0.9-0.2,1.8-0.5,2.6c-0.4,0.8-0.8,1.5-1.4,2.1s-1.3,1.1-2.1,1.4c-0.8,0.4-1.7,0.5-2.6,0.5h-1.3c-0.9,0-1.8-0.2-2.6-0.5
				c-0.8-0.4-1.5-0.8-2.1-1.4c-0.6-0.6-1.1-1.3-1.4-2.1C21.2,26,21,25.1,21,24.2V2.4c0-0.3-0.1-0.6-0.2-0.9
				c-0.1-0.3-0.3-0.5-0.5-0.8c-0.2-0.3-0.4-0.5-0.6-0.8h7c-0.3,0.2-0.5,0.5-0.7,0.8c-0.2,0.2-0.3,0.5-0.5,0.8
				c-0.1,0.3-0.2,0.6-0.2,0.8v21.8c0,0.6,0.2,1.2,0.7,1.6c0.4,0.4,1,0.7,1.6,0.7h1.3c0.6,0,1.2-0.2,1.6-0.7c0.4-0.4,0.7-1,0.7-1.6
				V2.4c0-0.2-0.1-0.5-0.2-0.8c-0.1-0.3-0.3-0.6-0.5-0.8c-0.2-0.3-0.4-0.5-0.6-0.8H36.9z"/>
			<path class="st5" d="M43.5,30c0.2-0.2,0.3-0.5,0.5-0.7c0.1-0.3,0.2-0.5,0.2-0.8V4.1h-2.9c-0.3,0-0.7,0.1-1.1,0.4
				C39.7,4.7,39.4,5,39,5.3c-0.4,0.3-0.8,0.7-1.2,1.1L39,0h15l1.2,6.4c-0.4-0.4-0.8-0.8-1.2-1.1c-0.4-0.3-0.8-0.6-1.2-0.8
				c-0.4-0.2-0.8-0.4-1.1-0.4h-3.1v24.4c0,0.3,0.1,0.5,0.2,0.8c0.1,0.3,0.3,0.5,0.5,0.7c0.2,0.3,0.4,0.5,0.7,0.8h-7.1
				C43.1,30.6,43.3,30.3,43.5,30z"/>
			<path class="st5" d="M64,30.8c0.3-0.3,0.5-0.6,0.7-0.9c0.2-0.3,0.3-0.6,0.4-1c0.1-0.4,0.2-0.7,0.1-1.1c-0.1-0.4-0.1-0.8-0.2-1.2
				c-0.1-0.4-0.1-0.8-0.2-1.1c-0.1-0.4-0.1-0.7-0.2-1.1h-5.6l-0.5,3.5c-0.1,0.3,0,0.7,0.1,1c0.1,0.4,0.3,0.7,0.4,0.9
				c0.2,0.3,0.4,0.7,0.7,1h-6.9c0.2-0.2,0.4-0.5,0.6-0.7c0.1-0.2,0.3-0.5,0.4-0.7c0.1-0.2,0.2-0.5,0.3-0.7c0-0.1,0.1-0.6,0.2-1.3
				c0.1-0.8,0.2-1.8,0.4-3c0.2-1.2,0.4-2.6,0.6-4.1c0.2-1.5,0.4-3.1,0.7-4.6c0.2-1.6,0.4-3.1,0.7-4.6C57,9.6,57.2,8.2,57.4,7
				c0.2-1.2,0.3-2.2,0.4-2.9C57.9,3.3,58,2.9,58,2.8c0.1-0.3,0-0.6-0.1-0.9c-0.1-0.3-0.3-0.6-0.5-0.9c-0.2-0.3-0.4-0.6-0.7-1h10.4
				c-0.3,0.3-0.5,0.7-0.7,1c-0.2,0.3-0.3,0.6-0.4,0.9c-0.1,0.3-0.2,0.6-0.1,0.9c0,0.1,0.1,0.5,0.2,1.2c0.1,0.7,0.3,1.7,0.4,2.9
				c0.2,1.2,0.4,2.5,0.6,4c0.2,1.5,0.4,3,0.6,4.6c0.2,1.6,0.4,3.1,0.6,4.6c0.2,1.5,0.4,2.9,0.6,4.1c0.2,1.2,0.3,2.2,0.4,3
				c0.1,0.8,0.2,1.3,0.2,1.4c0.1,0.3,0.2,0.5,0.3,0.8c0.1,0.3,0.3,0.5,0.4,0.8c0.2,0.3,0.4,0.5,0.6,0.8H64z M64.2,20.2L62,4.7
				l-2.2,15.5H64.2z"/>
			<path class="st5" d="M88.2,29.1c0.1,0.3,0.3,0.6,0.4,0.9c0.2,0.3,0.4,0.6,0.7,0.8h-6.9c0.2-0.3,0.4-0.5,0.6-0.8
				c0.2-0.3,0.3-0.5,0.5-0.8c0.1-0.3,0.2-0.6,0.2-1V17.9h-6.1V28c0,0.4,0.1,0.8,0.2,1.1s0.3,0.6,0.4,0.9c0.2,0.3,0.4,0.6,0.7,0.8H72
				c0.2-0.3,0.4-0.5,0.6-0.8c0.2-0.3,0.3-0.5,0.5-0.8c0.1-0.3,0.2-0.6,0.2-1V2.6c0-0.3-0.1-0.6-0.2-0.9c-0.1-0.3-0.3-0.6-0.5-0.8
				C72.4,0.5,72.2,0.3,72,0h6.9c-0.3,0.2-0.5,0.5-0.7,0.7c-0.2,0.2-0.3,0.5-0.4,0.8s-0.2,0.6-0.2,1v11.1h6.1V2.6
				c0-0.3-0.1-0.6-0.2-0.9S83.2,1.1,83,0.8c-0.2-0.3-0.4-0.6-0.6-0.8h6.9c-0.3,0.2-0.5,0.5-0.7,0.7c-0.2,0.2-0.3,0.5-0.4,0.8
				S88,2.1,88,2.5V28C88,28.4,88,28.8,88.2,29.1z"/>
		</g>
		<g>
			<path class="st5" d="M13,39.7c0-0.3-0.1-0.6-0.2-0.9c-0.1-0.3-0.3-0.6-0.5-0.9c-0.2-0.3-0.4-0.6-0.6-1h8.5c0.9,0,1.8,0.2,2.6,0.5
				c0.8,0.4,1.5,0.8,2.1,1.4s1.1,1.3,1.4,2.1c0.4,0.8,0.5,1.7,0.5,2.6v7.4c0,0.9-0.2,1.8-0.5,2.6c-0.4,0.8-0.8,1.5-1.4,2.1
				s-1.3,1.1-2.1,1.4c-0.8,0.4-1.7,0.5-2.6,0.5l-2.9,0v7.5c0,0.3,0.1,0.5,0.2,0.8s0.3,0.6,0.4,0.9c0.2,0.3,0.4,0.6,0.7,0.9h-6.9
				c0.2-0.3,0.4-0.6,0.6-0.9c0.2-0.3,0.3-0.5,0.5-0.8c0.1-0.3,0.2-0.5,0.2-0.7V39.7z M22.4,43.5c0-0.6-0.2-1.2-0.7-1.6
				s-1-0.7-1.6-0.7h-2.9v12h2.9c0.6,0,1.2-0.2,1.6-0.7c0.4-0.4,0.7-1,0.7-1.6V43.5z"/>
			<path class="st5" d="M37,67.7c0.3-0.3,0.5-0.6,0.7-0.9c0.2-0.3,0.3-0.6,0.4-1c0.1-0.4,0.2-0.7,0.1-1.1c-0.1-0.4-0.1-0.8-0.2-1.2
				C38.1,63,38,62.7,38,62.4c-0.1-0.4-0.1-0.7-0.2-1.1h-5.6l-0.5,3.5c-0.1,0.3,0,0.7,0.1,1c0.1,0.4,0.3,0.7,0.4,0.9
				c0.2,0.3,0.4,0.7,0.7,1h-6.9c0.2-0.2,0.4-0.5,0.6-0.7c0.1-0.2,0.3-0.5,0.4-0.7c0.1-0.2,0.2-0.5,0.3-0.7c0-0.1,0.1-0.6,0.2-1.3
				c0.1-0.8,0.2-1.8,0.4-3c0.2-1.2,0.4-2.6,0.6-4.1c0.2-1.5,0.4-3.1,0.7-4.6c0.2-1.6,0.4-3.1,0.7-4.6c0.2-1.5,0.4-2.9,0.6-4.1
				c0.2-1.2,0.3-2.2,0.4-2.9c0.1-0.8,0.2-1.2,0.2-1.3c0.1-0.3,0-0.6-0.1-0.9c-0.1-0.3-0.3-0.6-0.5-0.9c-0.2-0.3-0.4-0.6-0.7-1h10.4
				c-0.3,0.3-0.5,0.7-0.7,1c-0.2,0.3-0.3,0.6-0.4,0.9C39,39,38.9,39.3,39,39.6c0,0.1,0.1,0.5,0.2,1.2c0.1,0.7,0.3,1.7,0.4,2.9
				c0.2,1.2,0.4,2.5,0.6,4c0.2,1.5,0.4,3,0.6,4.6c0.2,1.6,0.4,3.1,0.6,4.6c0.2,1.5,0.4,2.9,0.6,4.1c0.2,1.2,0.3,2.2,0.4,3
				c0.1,0.8,0.2,1.3,0.2,1.4c0.1,0.3,0.2,0.5,0.3,0.8c0.1,0.3,0.3,0.5,0.4,0.8c0.2,0.3,0.4,0.5,0.6,0.8H37z M37.2,57L35,41.6
				L32.8,57H37.2z"/>
			<path class="st5" d="M54.1,67.7c0.1,0,0.1-0.1,0.3-0.2s0.3-0.3,0.4-0.5c0.1-0.2,0.2-0.5,0.3-0.8c0.1-0.3,0.1-0.7,0-1.2l-2.4-7.5
				h-2.3v7.5c0,0.3,0.1,0.5,0.2,0.8c0.1,0.3,0.3,0.6,0.4,0.9c0.2,0.3,0.4,0.6,0.7,0.9h-6.9c0.2-0.3,0.4-0.6,0.6-0.9
				c0.2-0.3,0.3-0.5,0.5-0.8c0.1-0.3,0.2-0.5,0.2-0.7V39.7c0-0.3-0.1-0.6-0.2-0.9c-0.1-0.3-0.3-0.6-0.5-0.9c-0.2-0.3-0.4-0.6-0.6-1
				h8.5c0.9,0,1.8,0.2,2.6,0.5c0.8,0.4,1.5,0.8,2.1,1.4s1.1,1.3,1.4,2.1c0.4,0.8,0.5,1.7,0.5,2.6V51c0,1.2-0.3,2.3-0.9,3.3
				c-0.6,1-1.3,1.8-2.3,2.4c0.5,1.6,1,3,1.4,4.3l1.4,4.3c0.1,0.4,0.3,0.7,0.6,1.1c0.2,0.3,0.5,0.6,0.7,0.8c0.3,0.3,0.6,0.5,0.8,0.7
				H54.1z M50.3,53.2h2.9c0.6,0,1.2-0.2,1.6-0.7c0.4-0.4,0.7-1,0.7-1.6v-7.4c0-0.6-0.2-1.2-0.7-1.6s-1-0.7-1.6-0.7h-2.9V53.2z"/>
			<path class="st5" d="M74.1,67.4c0.2-0.2,0.4-0.4,0.5-0.7c0.2-0.3,0.3-0.5,0.4-0.8c0.1-0.3,0.1-0.6,0-0.8l-4.4-10.9l-2.5,4.7V65
				c0,0.3,0.1,0.6,0.2,0.9c0.1,0.3,0.3,0.6,0.4,0.8c0.2,0.3,0.4,0.6,0.7,0.9h-6.9c0.2-0.3,0.4-0.6,0.6-0.9c0.2-0.3,0.3-0.5,0.5-0.8
				c0.1-0.3,0.2-0.6,0.2-0.9v-26c0-0.3-0.1-0.5-0.2-0.8s-0.3-0.5-0.5-0.7c-0.2-0.3-0.4-0.5-0.6-0.8h6.9c-0.3,0.3-0.5,0.6-0.7,0.9
				c-0.2,0.3-0.3,0.5-0.4,0.8c-0.1,0.3-0.2,0.5-0.2,0.7v11.7l6.1-11.5c0.3-0.5,0.3-1,0-1.5c-0.3-0.5-0.5-0.8-0.9-1h7.9
				c-0.4,0.3-0.7,0.5-1.1,0.8c-0.3,0.3-0.6,0.5-0.9,0.8c-0.3,0.3-0.5,0.6-0.7,1l-5.3,9.9c0.6,1.6,1.3,3.3,2,5.1c0.7,1.8,1.4,3.4,2,5
				c0.6,1.5,1.1,2.8,1.5,3.9c0.4,1.1,0.6,1.6,0.7,1.8c0.1,0.3,0.3,0.6,0.5,0.9c0.2,0.3,0.5,0.6,0.7,0.8c0.3,0.3,0.6,0.6,0.9,0.9
				h-7.9C73.8,67.6,73.9,67.5,74.1,67.4z"/>
			<path class="st5" d="M97.3,46.9h-7c0.2-0.2,0.5-0.5,0.7-0.8c0.2-0.2,0.3-0.5,0.5-0.8c0.1-0.3,0.2-0.6,0.2-0.8v-0.4
				c0-1.1-0.2-1.9-0.7-2.4s-1.1-0.8-1.8-0.8c-0.8,0-1.4,0.3-1.9,0.8s-0.7,1.3-0.7,2.4c0,1,0.2,2,0.7,2.7c0.5,0.8,1,1.5,1.7,2.2
				c0.7,0.7,1.4,1.4,2.3,2.1c0.8,0.7,1.6,1.5,2.3,2.3c0.7,0.8,1.3,1.8,1.7,2.9c0.5,1.1,0.7,2.3,0.7,3.7c0,5.2-2.3,7.8-6.9,7.8
				c-1.2,0-2.2-0.1-3.1-0.4c-0.9-0.3-1.6-0.7-2.2-1.3c-0.6-0.6-1-1.4-1.3-2.4c-0.3-1-0.4-2.2-0.4-3.7v-0.8c0-0.3-0.1-0.6-0.2-0.8
				c-0.1-0.3-0.3-0.5-0.5-0.8c-0.2-0.3-0.4-0.5-0.7-0.8h7c-0.3,0.3-0.5,0.5-0.7,0.8c-0.2,0.2-0.3,0.5-0.5,0.8
				c-0.1,0.3-0.2,0.5-0.2,0.8v1.1c0,1.1,0.3,1.9,0.8,2.4c0.5,0.5,1.1,0.8,1.9,0.8c0.7,0,1.4-0.3,1.9-0.8s0.8-1.3,0.8-2.4
				c0-1-0.2-2-0.7-2.7c-0.5-0.8-1-1.5-1.7-2.2c-0.7-0.7-1.5-1.4-2.3-2.1c-0.8-0.7-1.6-1.5-2.3-2.3c-0.7-0.8-1.3-1.8-1.7-2.8
				c-0.5-1.1-0.7-2.3-0.7-3.7c0-2.7,0.6-4.7,1.7-5.9c1.2-1.2,2.9-1.9,5.2-1.9c2.3,0,4,0.6,5.2,1.9c1.2,1.2,1.8,3.2,1.8,5.9
				c0,0.4,0.1,0.7,0.2,1c0.1,0.3,0.3,0.6,0.5,0.8C96.9,46.5,97.1,46.7,97.3,46.9z"/>
		</g>
		<g>
			<g>
				<path class="st5" d="M42.6,79.2h2.8v1.6v1.9c0,0.4-0.1,0.7-0.2,1c-0.1,0.3-0.3,0.6-0.6,0.8c-0.2,0.2-0.5,0.4-0.8,0.6
					c-0.3,0.1-0.6,0.2-1,0.2h-0.5c-0.4,0-0.7-0.1-1-0.2c-0.3-0.1-0.6-0.3-0.8-0.6c-0.2-0.2-0.4-0.5-0.6-0.8c-0.1-0.3-0.2-0.7-0.2-1
					v-6.9c0-0.4,0.1-0.7,0.2-1c0.1-0.3,0.3-0.6,0.6-0.8c0.2-0.2,0.5-0.4,0.8-0.6c0.3-0.1,0.6-0.2,1-0.2h0.5c0.4,0,0.7,0.1,1,0.2
					c0.3,0.1,0.6,0.3,0.8,0.6c0.2,0.2,0.4,0.5,0.5,0.8c0.1,0.3,0.2,0.7,0.2,1v0.6c0,0.2,0,0.3,0.1,0.4c0.1,0.1,0.1,0.2,0.2,0.3
					c0.1,0.1,0.2,0.2,0.3,0.3h-2.7c0.1-0.1,0.2-0.2,0.3-0.3c0.1-0.1,0.1-0.2,0.2-0.3c0.1-0.1,0.1-0.2,0.1-0.4v-0.7
					c0-0.2-0.1-0.5-0.3-0.6c-0.2-0.2-0.4-0.3-0.6-0.3h-0.5c-0.2,0-0.5,0.1-0.6,0.3c-0.2,0.2-0.3,0.4-0.3,0.6v6.9
					c0,0.2,0.1,0.5,0.3,0.6c0.2,0.2,0.4,0.3,0.6,0.3h0.5c0.2,0,0.5-0.1,0.6-0.3c0.2-0.2,0.3-0.4,0.3-0.6v-1.9c-0.2,0-0.3,0-0.4,0
					c-0.1,0-0.2,0.1-0.3,0.1s-0.2,0.1-0.2,0.1c-0.1,0-0.1,0.1-0.1,0.1V79.2z"/>
				<path class="st5" d="M52.8,73.4c-0.1,0.1-0.2,0.2-0.3,0.3c-0.1,0.1-0.1,0.2-0.2,0.3c-0.1,0.1-0.1,0.3-0.1,0.4v8.3
					c0,0.4-0.1,0.7-0.2,1c-0.1,0.3-0.3,0.6-0.5,0.8c-0.2,0.2-0.5,0.4-0.8,0.6c-0.3,0.1-0.6,0.2-1,0.2h-0.5c-0.4,0-0.7-0.1-1-0.2
					c-0.3-0.1-0.6-0.3-0.8-0.6c-0.2-0.2-0.4-0.5-0.6-0.8c-0.1-0.3-0.2-0.6-0.2-1v-8.4c0-0.1,0-0.2-0.1-0.3c-0.1-0.1-0.1-0.2-0.2-0.3
					c-0.1-0.1-0.2-0.2-0.2-0.3h2.7c-0.1,0.1-0.2,0.2-0.3,0.3c-0.1,0.1-0.1,0.2-0.2,0.3c-0.1,0.1-0.1,0.2-0.1,0.3v8.4
					c0,0.2,0.1,0.5,0.3,0.6c0.2,0.2,0.4,0.3,0.6,0.3h0.5c0.2,0,0.5-0.1,0.6-0.3c0.2-0.2,0.3-0.4,0.3-0.6v-8.4c0-0.1,0-0.2-0.1-0.3
					c-0.1-0.1-0.1-0.2-0.2-0.3c-0.1-0.1-0.2-0.2-0.2-0.3H52.8z"/>
				<path class="st5" d="M55.9,73.7c-0.1,0.1-0.1,0.2-0.2,0.3c0,0.1-0.1,0.2-0.1,0.4v9.9c0,0.2,0,0.3,0.1,0.4c0,0.1,0.1,0.2,0.2,0.3
					c0.1,0.1,0.2,0.2,0.3,0.3h-2.7c0.1-0.1,0.2-0.2,0.2-0.3c0.1-0.1,0.1-0.2,0.2-0.3c0.1-0.1,0.1-0.2,0.1-0.4v-9.9
					c0-0.1,0-0.2-0.1-0.4c-0.1-0.1-0.1-0.2-0.2-0.3c-0.1-0.1-0.2-0.2-0.2-0.3h2.7C56.1,73.5,56,73.6,55.9,73.7z"/>
				<path class="st5" d="M57.6,74.6c0-0.1,0-0.2-0.1-0.3s-0.1-0.3-0.2-0.4c-0.1-0.1-0.2-0.3-0.2-0.5h3.3c0.4,0,0.7,0.1,1,0.2
					c0.3,0.1,0.6,0.3,0.8,0.6c0.2,0.2,0.4,0.5,0.5,0.8c0.1,0.3,0.2,0.6,0.2,1v6.8c0,0.4-0.1,0.7-0.2,1c-0.1,0.3-0.3,0.6-0.5,0.8
					c-0.2,0.2-0.5,0.4-0.8,0.5c-0.3,0.1-0.6,0.2-1,0.2h-3.3c0.1-0.1,0.2-0.3,0.2-0.4c0.1-0.1,0.1-0.3,0.2-0.4
					c0.1-0.1,0.1-0.3,0.1-0.4V74.6z M61.3,76c0-0.2-0.1-0.5-0.3-0.6c-0.2-0.2-0.4-0.3-0.6-0.3h-1.1v8.5h1.1c0.2,0,0.4-0.1,0.6-0.3
					c0.2-0.2,0.3-0.4,0.3-0.6V76z"/>
				<path class="st5" d="M68.6,83.5c0.1-0.1,0.3-0.1,0.4-0.2c0.1-0.1,0.2-0.2,0.3-0.3l-0.4,2.3h-5.1c0.1-0.1,0.2-0.3,0.2-0.4
					c0.1-0.1,0.1-0.2,0.2-0.4c0.1-0.1,0.1-0.3,0.1-0.4v-9.7c0-0.1,0-0.2-0.1-0.3c-0.1-0.1-0.1-0.2-0.2-0.3c-0.1-0.1-0.2-0.2-0.2-0.3
					h5l0.4,2.3c-0.1-0.1-0.2-0.2-0.4-0.3c-0.1-0.1-0.2-0.2-0.4-0.2c-0.1-0.1-0.3-0.1-0.4-0.1h0h-2.1v3.6h1.6h0c0.1,0,0.2,0,0.3-0.1
					c0.1,0,0.2-0.1,0.3-0.2c0.1-0.1,0.2-0.2,0.3-0.3v2.7c-0.1-0.1-0.1-0.2-0.2-0.2c-0.1-0.1-0.2-0.1-0.3-0.2
					c-0.1-0.1-0.2-0.1-0.4-0.1h-1.6v3.3h2.2C68.3,83.6,68.4,83.6,68.6,83.5z"/>
			</g>
			<polygon class="st5" points="22.2,79.3 35.2,78.4 35.2,79.9 			"/>
			<polygon class="st5" points="86.8,78.9 73.8,79.9 73.8,78.4 			"/>
		</g>
	</g>
</g>
</svg>
